<?xml version="1.0" encoding="iso-8859-1"?>
<!-- Generator: Adobe Illustrator 19.0.0, SVG Export Plug-In . SVG Version: 6.00 Build 0)  -->
<svg version="1.1" id="Capa_1" xmlns="http://www.w3.org/2000/svg" xmlns:xlink="http://www.w3.org/1999/xlink" x="0px" y="0px"
	 viewBox="0 0 59 59" style="enable-background:new 0 0 59 59;" xml:space="preserve">
<polygon style="fill:#C77C38;" points="29.5,10 7.5,25.5 7.5,56.5 50.5,56.5 50.5,25 "/>
<path style="fill:#BA631E;" d="M51,39H8c-1.381,0-2.5-1.119-2.5-2.5v0C5.5,35.119,6.619,34,8,34h43c1.381,0,2.5,1.119,2.5,2.5v0
	C53.5,37.881,52.381,39,51,39z"/>
<path style="fill:#BA631E;" d="M51,27.426H8c-1.381,0-2.5-1.119-2.5-2.5v0c0-1.381,1.119-2.5,2.5-2.5h43c1.381,0,2.5,1.119,2.5,2.5
	v0C53.5,26.307,52.381,27.426,51,27.426z"/>
<g>
	<path style="fill:#BA631E;" d="M8,54c-1.381,0-2.5,1.119-2.5,2.5S6.619,59,8,59h15.5v-5H8z"/>
	<path style="fill:#BA631E;" d="M51,54H35.5v5H51c1.381,0,2.5-1.119,2.5-2.5S52.381,54,51,54z"/>
</g>
<g>
	<path style="fill:#BA631E;" d="M23.5,44H8c-1.381,0-2.5,1.119-2.5,2.5S6.619,49,8,49h15.5V44z"/>
	<path style="fill:#BA631E;" d="M51,44H35.5v5H51c1.381,0,2.5-1.119,2.5-2.5S52.381,44,51,44z"/>
</g>
<path style="fill:#6C4127;" d="M53.615,31.449L29.455,13.82L5.329,30.549C4.016,31.559,2.132,31.313,1.122,30l0,0
	c-1.01-1.313-0.764-3.197,0.549-4.207L29.545,6.18l27.839,20.601c1.289,1.041,1.49,2.93,0.449,4.219l0,0
	C56.792,32.289,54.903,32.49,53.615,31.449z"/>
<polygon style="fill:#9E6C53;" points="51.5,22.426 51.5,13 45.5,13 45.5,17.986 "/>
<rect x="23.5" y="39" style="fill:#6C4127;" width="12" height="20"/>
<circle style="fill:#C7CAC7;" cx="26.5" cy="49" r="1"/>
<rect x="24.5" y="24" style="fill:#C6E2F7;stroke:#6B5B4B;stroke-width:2;stroke-miterlimit:10;" width="10" height="10"/>
<polygon style="fill:#6B5B4B;" points="34.5,28 30.5,28 30.5,24 28.5,24 28.5,28 24.5,28 24.5,30 28.5,30 28.5,34 30.5,34 30.5,30 
	34.5,30 "/>
<path style="fill:#C7CAC7;" d="M46.5,11c-0.26,0-0.521-0.11-0.71-0.29c-0.181-0.19-0.29-0.45-0.29-0.71s0.109-0.521,0.29-0.71
	c0.37-0.37,1.05-0.37,1.42,0C47.39,9.479,47.5,9.74,47.5,10s-0.11,0.52-0.29,0.71C47.02,10.89,46.76,11,46.5,11z"/>
<path style="fill:#C7CAC7;" d="M50.5,11c-0.553,0-1-0.447-1-1V6c0-0.553,0.447-1,1-1s1,0.447,1,1v4C51.5,10.553,51.053,11,50.5,11z"
	/>
<path style="fill:#C7CAC7;" d="M50.5,4c-0.553,0-1-0.447-1-1V1c0-0.553,0.447-1,1-1s1,0.447,1,1v2C51.5,3.553,51.053,4,50.5,4z"/>
<path style="fill:#C7CAC7;" d="M46.5,8c-0.553,0-1-0.447-1-1V5c0-0.553,0.447-1,1-1s1,0.447,1,1v2C47.5,7.553,47.053,8,46.5,8z"/>
<path style="fill:#C7CAC7;" d="M46.5,3c-0.553,0-1-0.447-1-1V1c0-0.553,0.447-1,1-1s1,0.447,1,1v1C47.5,2.553,47.053,3,46.5,3z"/>
<g>
</g>
<g>
</g>
<g>
</g>
<g>
</g>
<g>
</g>
<g>
</g>
<g>
</g>
<g>
</g>
<g>
</g>
<g>
</g>
<g>
</g>
<g>
</g>
<g>
</g>
<g>
</g>
<g>
</g>
</svg>
