<svg height="512pt" viewBox="0 0 512.0006 512" width="512pt" xmlns="http://www.w3.org/2000/svg"><path d="m348.136719 425.300781-61.789063-35.773437 45.460938-26.515625-15.144532-57.835938-37.554687-32.996093 23.464844-20.753907-8.507813-32.503906-37.664062 33.300781-37.550782-32.992187-8.5 32.464843 23.40625 20.566407-37.480468 33.140625-15.160156 57.859375 45.53125 26.367187-61.898438 36.09375-10.707031 40.890625c.984375-.441406-6.136719 3.664063 102.480469-59.6875 108.53125 62.835938 101.367187 58.703125 102.300781 59.207031zm-91.671875-53.070312-54.671875-31.652344 54.671875-48.363281 54.738281 48.09375zm0 0" fill="#394d5c"/><path d="m348.136719 425.300781c-8.246094-4.773437 2.105469 1.222657-61.789063-35.773437 47.234375-27.550782 39.488282-23.035156 45.460938-26.515625l-15.144532-57.835938c-8.960937-7.867187-3.988281-3.496093-37.554687-32.996093 22.195313-19.628907 18.042969-15.957032 23.464844-20.753907l-8.507813-32.503906c-5.597656 4.945313.71875-.640625-37.574218 33.222656v40.101563l54.710937 48.0625-54.710937 31.902344v34.734374l.03125-.019531c110.019531 63.695313 101.378906 58.707031 102.300781 59.207031zm0 0" fill="#233138"/><path d="m422.402344 496.90625c0 8.28125-6.71875 15-14.996094 15h-301.824219c-8.277343 0-14.996093-6.71875-14.996093-15 0-8.277344 6.71875-14.996094 14.996093-14.996094h18.617188l86.144531-328.816406c6.15625 9.277344 15.066406 16.597656 25.554688 20.804688l-80.695313 308.011718h202.589844l-80.691407-308.019531c10.488282-4.210937 19.394532-11.527344 25.554688-20.808594l86.140625 328.828125h18.609375c8.277344 0 14.996094 6.71875 14.996094 14.996094zm0 0" fill="#394d5c"/><path d="m422.402344 496.90625c0 8.28125-6.71875 15-14.996094 15h-150.914062v-29.996094h101.300781c-1.019531-3.898437-80.507813-307.308594-80.691407-308.019531 10.488282-4.210937 19.394532-11.527344 25.554688-20.808594 2.640625 10.09375 85.726562 327.246094 86.140625 328.828125h18.609375c8.277344 0 14.996094 6.71875 14.996094 14.996094zm0 0" fill="#233138"/><path d="m256.492188 62.855469c-33.230469 0-60.269532 26.914062-60.269532 60 0 33.089843 27.039063 60.007812 60.269532 60.007812 33.234374 0 60.269531-26.917969 60.269531-60.007812 0-33.085938-27.035157-60-60.269531-60zm0 0" fill="#fd4235"/><path d="m256.492188 62.851562v120.007813c33.265624 0 60.269531-26.957031 60.269531-60 0-33.085937-27.035157-60.007813-60.269531-60.007813zm0 0" fill="#eb1102"/><g fill="#ffc543"><path d="m92.023438 213.273438c-5.65625 0-11.070313-3.214844-13.609376-8.683594-24.023437-51.6875-24.054687-111.710938 0-163.46875 3.488282-7.511719 12.40625-10.769532 19.917969-7.277344 7.511719 3.488281 10.769531 12.40625 7.28125 19.917969-10.09375 21.71875-15.210937 44.96875-15.210937 69.09375 0 24.128906 5.117187 47.375 15.210937 69.09375 4.625 9.960937-2.695312 21.324219-13.589843 21.324219zm0 0"/><path d="m40.742188 245.714844c-5.472657 0-10.746094-3.007813-13.390626-8.222656-36.457031-71.933594-36.480468-157.289063 0-229.273438 3.746094-7.386719 12.773438-10.339844 20.160157-6.59375 7.386719 3.742188 10.339843 12.765625 6.597656 20.15625-32.132813 63.398438-32.15625 138.707031 0 202.152344 5.0625 9.996094-2.253906 21.78125-13.367187 21.78125zm0 0"/><path d="m129.648438 170.976562c-11.832032-30.847656-11.859376-65.320312 0-96.238281 2.964843-7.734375 11.636718-11.597656 19.375-8.632812 7.730468 2.96875 11.597656 11.640625 8.628906 19.375-8.917969 23.253906-9.457032 50.097656 0 74.753906 2.96875 7.730469-.898438 16.40625-8.628906 19.371094-7.730469 2.964843-16.40625-.890625-19.375-8.628907zm0 0"/></g><path d="m420.96875 213.273438c-10.894531 0-18.222656-11.359376-13.589844-21.324219 10.09375-21.714844 15.210938-44.960938 15.210938-69.09375 0-24.128907-5.117188-47.375-15.210938-69.089844-3.492187-7.511719-.234375-16.433594 7.277344-19.921875 7.515625-3.492188 16.429688-.234375 19.921875 7.277344 24.019531 51.683594 24.054687 111.71875 0 163.472656-2.539063 5.464844-7.957031 8.679688-13.609375 8.679688zm0 0" fill="#f90"/><path d="m472.246094 245.714844c-11.109375 0-18.429688-11.78125-13.363282-21.78125 29.222657-57.65625 32.75-135.5625-1.003906-202.152344-3.742187-7.390625-.789062-16.414062 6.597656-20.15625 7.390626-3.742188 16.414063-.792969 20.160157 6.597656 38.316406 75.601563 34.289062 163.589844 1 229.269532-2.644531 5.214843-7.917969 8.222656-13.390625 8.222656zm0 0" fill="#f90"/><path d="m369.335938 180.605469c-10.5 0-17.761719-10.558594-14-20.371094 4.570312-11.917969 6.890624-24.492187 6.890624-37.378906 0-12.882813-2.316406-25.457031-6.890624-37.375-2.964844-7.734375.898437-16.40625 8.632812-19.375 7.730469-2.964844 16.40625.898437 19.371094 8.632812 5.894531 15.359375 8.878906 31.546875 8.878906 48.117188 0 16.570312-2.984375 32.761719-8.878906 48.121093-2.285156 5.964844-7.972656 9.628907-14.003906 9.628907zm0 0" fill="#f90"/></svg>